<?xml version="1.0" encoding="UTF-8" standalone="no"?>
<!-- Created with Inkscape (http://www.inkscape.org/) -->

<svg
   version="1.1"
   id="svg1"
   width="326.97357"
   height="133.98306"
   viewBox="0 0 326.97357 133.98306"
   sodipodi:docname="logos_nuevos_dif y gob_jal.svg"
   inkscape:version="1.1.1 (3bf5ae0d25, 2021-09-20)"
   xmlns:inkscape="http://www.inkscape.org/namespaces/inkscape"
   xmlns:sodipodi="http://sodipodi.sourceforge.net/DTD/sodipodi-0.dtd"
   xmlns="http://www.w3.org/2000/svg"
   xmlns:svg="http://www.w3.org/2000/svg">
  <defs
     id="defs1">
    <clipPath
       clipPathUnits="userSpaceOnUse"
       id="clipPath44">
      <path
         d="M 0,792 H 612 V 0 H 0 Z"
         transform="translate(-459.39911,-370.79721)"
         id="path44" />
    </clipPath>
    <clipPath
       clipPathUnits="userSpaceOnUse"
       id="clipPath46">
      <path
         d="M 0,792 H 612 V 0 H 0 Z"
         transform="translate(-432.46251,-400.22281)"
         id="path46" />
    </clipPath>
    <clipPath
       clipPathUnits="userSpaceOnUse"
       id="clipPath48">
      <path
         d="M 0,792 H 612 V 0 H 0 Z"
         transform="translate(-443.02471,-343.17641)"
         id="path48" />
    </clipPath>
    <clipPath
       clipPathUnits="userSpaceOnUse"
       id="clipPath50">
      <path
         d="M 0,792 H 612 V 0 H 0 Z"
         transform="translate(-443.09291,-355.73141)"
         id="path50" />
    </clipPath>
    <clipPath
       clipPathUnits="userSpaceOnUse"
       id="clipPath52">
      <path
         d="M 0,792 H 612 V 0 H 0 Z"
         transform="translate(-429.93311,-326.63131)"
         id="path52" />
    </clipPath>
    <clipPath
       clipPathUnits="userSpaceOnUse"
       id="clipPath54">
      <path
         d="M 0,792 H 612 V 0 H 0 Z"
         transform="translate(-479.82481,-276.7837)"
         id="path54" />
    </clipPath>
    <clipPath
       clipPathUnits="userSpaceOnUse"
       id="clipPath260-1">
      <path
         d="M 0,792 H 612 V 0 H 0 Z"
         transform="translate(-486.23441,-644.70992)"
         id="path260-9" />
    </clipPath>
    <clipPath
       clipPathUnits="userSpaceOnUse"
       id="clipPath262-4">
      <path
         d="M 0,792 H 612 V 0 H 0 Z"
         transform="translate(-531.21221,-606.82511)"
         id="path262-7" />
    </clipPath>
    <clipPath
       clipPathUnits="userSpaceOnUse"
       id="clipPath264-8">
      <path
         d="M 0,792 H 612 V 0 H 0 Z"
         transform="translate(-486.22121,-556.63882)"
         id="path264-4" />
    </clipPath>
    <clipPath
       clipPathUnits="userSpaceOnUse"
       id="clipPath266-5">
      <path
         d="M 0,792 H 612 V 0 H 0 Z"
         transform="translate(-459.90741,-566.73712)"
         id="path266-0" />
    </clipPath>
    <clipPath
       clipPathUnits="userSpaceOnUse"
       id="clipPath268-3">
      <path
         d="M 0,792 H 612 V 0 H 0 Z"
         transform="translate(-467.98051,-557.76772)"
         id="path268-6" />
    </clipPath>
    <clipPath
       clipPathUnits="userSpaceOnUse"
       id="clipPath270-1">
      <path
         d="M 0,792 H 612 V 0 H 0 Z"
         transform="translate(-477.10651,-553.79131)"
         id="path270-0" />
    </clipPath>
    <clipPath
       clipPathUnits="userSpaceOnUse"
       id="clipPath272-6">
      <path
         d="M 0,792 H 612 V 0 H 0 Z"
         transform="translate(-484.48351,-546.83251)"
         id="path272-3" />
    </clipPath>
    <clipPath
       clipPathUnits="userSpaceOnUse"
       id="clipPath274-2">
      <path
         d="M 0,792 H 612 V 0 H 0 Z"
         transform="translate(-495.37641,-552.19381)"
         id="path274-0" />
    </clipPath>
    <clipPath
       clipPathUnits="userSpaceOnUse"
       id="clipPath276-6">
      <path
         d="M 0,792 H 612 V 0 H 0 Z"
         transform="translate(-507.18881,-555.85582)"
         id="path276-1" />
    </clipPath>
    <clipPath
       clipPathUnits="userSpaceOnUse"
       id="clipPath278-5">
      <path
         d="M 0,792 H 612 V 0 H 0 Z"
         transform="translate(-509.70652,-565.08871)"
         id="path278-5" />
    </clipPath>
    <clipPath
       clipPathUnits="userSpaceOnUse"
       id="clipPath280-4">
      <path
         d="M 0,792 H 612 V 0 H 0 Z"
         transform="translate(-486.23441,-587.21261)"
         id="path280-7" />
    </clipPath>
    <clipPath
       clipPathUnits="userSpaceOnUse"
       id="clipPath282-6">
      <path
         d="M 0,792 H 612 V 0 H 0 Z"
         transform="translate(-446.27221,-590.50702)"
         id="path282-5" />
    </clipPath>
  </defs>
  <sodipodi:namedview
     id="namedview1"
     pagecolor="#505050"
     bordercolor="#eeeeee"
     borderopacity="1"
     inkscape:showpageshadow="0"
     inkscape:pageopacity="0"
     inkscape:pagecheckerboard="0"
     inkscape:deskcolor="#d1d1d1"
     inkscape:zoom="1.5018939"
     inkscape:cx="303.94956"
     inkscape:cy="528.99874"
     inkscape:window-width="1920"
     inkscape:window-height="1009"
     inkscape:window-x="1912"
     inkscape:window-y="-8"
     inkscape:window-maximized="1"
     inkscape:current-layer="layer-MC0"
     showgrid="false"
     inkscape:pageshadow="2">
    <inkscape:page
       x="0"
       y="0"
       width="326.97357"
       height="133.98306"
       id="page2"
       margin="0"
       bleed="0" />
  </sodipodi:namedview>
  <g
     id="layer-MC0"
     inkscape:groupmode="layer"
     inkscape:label="Capa 1"
     transform="translate(-127.2495,-390.9868)">
    <g
       id="g1"
       transform="matrix(0.97104643,0,0,0.97104643,3.6843277,15.199752)">
      <path
         id="path43"
         d="m 0,0 v -29.05 c -2.946,-2.672 -4.624,-6.437 -4.624,-10.436 0,-1.762 0.324,-3.471 0.957,-5.098 -4.645,-7.729 -13.036,-12.498 -22.078,-12.498 -9.045,0 -17.436,4.771 -22.081,12.506 0.018,0.047 0.034,0.097 0.05,0.145 0.037,0.089 0.068,0.182 0.1,0.274 0.045,0.124 0.087,0.245 0.127,0.369 0.029,0.093 0.058,0.185 0.087,0.28 0.037,0.124 0.071,0.248 0.105,0.372 0.024,0.095 0.05,0.187 0.071,0.282 0.032,0.127 0.061,0.253 0.088,0.38 0.021,0.095 0.042,0.187 0.06,0.282 0.027,0.129 0.048,0.261 0.069,0.391 0.016,0.092 0.032,0.184 0.045,0.277 0.021,0.137 0.037,0.274 0.052,0.411 0.011,0.087 0.022,0.174 0.029,0.264 0.016,0.15 0.024,0.303 0.035,0.456 0.005,0.074 0.013,0.148 0.016,0.222 0.01,0.229 0.015,0.456 0.015,0.685 0,0.13 0,0.256 -0.005,0.386 0,0.042 -0.003,0.084 -0.005,0.129 -0.003,0.084 -0.005,0.171 -0.011,0.256 -0.002,0.05 -0.005,0.1 -0.008,0.15 -0.005,0.077 -0.01,0.156 -0.015,0.232 -0.006,0.053 -0.011,0.108 -0.016,0.161 -0.008,0.074 -0.013,0.148 -0.021,0.219 -0.006,0.056 -0.014,0.111 -0.022,0.166 -0.007,0.072 -0.015,0.143 -0.026,0.214 -0.008,0.055 -0.016,0.111 -0.024,0.166 -0.01,0.071 -0.021,0.14 -0.031,0.208 -0.011,0.059 -0.019,0.114 -0.029,0.169 -0.014,0.069 -0.024,0.137 -0.037,0.206 -0.011,0.055 -0.024,0.113 -0.035,0.169 -0.013,0.068 -0.029,0.134 -0.042,0.203 -0.013,0.055 -0.026,0.111 -0.039,0.166 -0.013,0.069 -0.032,0.135 -0.048,0.203 -0.013,0.056 -0.026,0.111 -0.042,0.164 -0.016,0.068 -0.034,0.134 -0.053,0.203 -0.016,0.053 -0.031,0.108 -0.047,0.161 -0.019,0.068 -0.04,0.134 -0.061,0.203 -0.016,0.053 -0.032,0.105 -0.047,0.158 -0.021,0.069 -0.045,0.135 -0.069,0.203 -0.016,0.051 -0.034,0.103 -0.05,0.153 -0.026,0.072 -0.05,0.14 -0.077,0.209 -0.015,0.047 -0.034,0.097 -0.052,0.145 -0.027,0.074 -0.056,0.145 -0.085,0.216 -0.018,0.045 -0.034,0.09 -0.052,0.135 -0.035,0.079 -0.066,0.155 -0.101,0.234 -0.016,0.037 -0.031,0.074 -0.047,0.111 -0.103,0.23 -0.209,0.457 -0.322,0.678 -0.018,0.034 -0.037,0.069 -0.053,0.103 -0.042,0.077 -0.082,0.153 -0.121,0.229 -0.024,0.043 -0.048,0.085 -0.071,0.127 -0.037,0.069 -0.074,0.135 -0.114,0.203 -0.026,0.045 -0.053,0.087 -0.079,0.132 -0.037,0.063 -0.074,0.127 -0.113,0.19 -0.029,0.045 -0.058,0.092 -0.087,0.137 -0.037,0.061 -0.077,0.122 -0.114,0.182 -0.031,0.045 -0.06,0.09 -0.092,0.137 -0.04,0.058 -0.079,0.116 -0.119,0.177 -0.032,0.045 -0.063,0.09 -0.097,0.135 -0.04,0.058 -0.08,0.116 -0.122,0.171 -0.034,0.045 -0.066,0.092 -0.1,0.137 -0.042,0.056 -0.084,0.111 -0.127,0.166 -0.034,0.045 -0.071,0.09 -0.105,0.135 -0.042,0.053 -0.087,0.108 -0.132,0.164 -0.034,0.042 -0.071,0.087 -0.108,0.129 -0.045,0.055 -0.09,0.108 -0.137,0.161 -0.037,0.042 -0.074,0.084 -0.111,0.126 -0.048,0.056 -0.095,0.108 -0.143,0.161 -0.036,0.04 -0.073,0.082 -0.113,0.122 -0.05,0.055 -0.1,0.105 -0.15,0.158 -0.037,0.039 -0.074,0.079 -0.114,0.119 -0.053,0.052 -0.105,0.105 -0.158,0.158 -0.04,0.037 -0.077,0.074 -0.113,0.111 -0.058,0.052 -0.114,0.108 -0.172,0.16 -0.037,0.035 -0.071,0.069 -0.111,0.103 -0.005,0.006 -0.01,0.011 -0.018,0.016 V 0 h 15.352 c 2.421,-3.321 6.254,-5.286 10.393,-5.286 4.141,0 7.974,1.965 10.396,5.286 z m 3.078,1.258 c 1.855,1.324 4.073,2.039 6.389,2.039 6.072,0 11.01,-4.938 11.01,-11.01 0,-3.398 -1.532,-6.552 -4.194,-8.649 L 3.078,-26.616 v 3.058 1.45 l 10.844,8.893 0.014,0.01 c 1.643,1.374 2.585,3.39 2.585,5.532 0,3.972 -3.234,7.206 -7.207,7.206 -1.617,0 -3.205,-0.551 -4.471,-1.554 L 4.822,-2.036 3.078,-3.466 v 3.047 z m 0,-18.984 v 10.253 0.024 l 3.688,3.023 c 0.731,0.575 1.612,0.881 2.548,0.881 2.277,0 4.128,-1.852 4.128,-4.128 0,-1.224 -0.538,-2.374 -1.474,-3.163 l -8.89,-7.291 z m -33.637,20.86 c 1.282,-0.963 2.712,-1.715 4.257,-2.219 l 0.475,-0.153 0.478,0.153 c 1.545,0.504 2.98,1.269 4.27,2.242 l 2.696,-2.028 c -1.846,-2.11 -4.508,-3.334 -7.362,-3.334 -2.86,0 -5.529,1.232 -7.375,3.35 z m 4.809,22.26 c 3.642,0 6.043,-2.068 7.217,-4.648 l -7.217,2.691 -7.217,-2.691 c 1.173,2.58 3.571,4.648 7.217,4.648 m -7.421,-11.946 -1.896,0.907 -0.367,2.184 2.263,0.844 z m 2.936,22.479 c 1.201,1.2 2.794,1.86 4.49,1.86 1.736,0 3.355,-0.686 4.561,-1.934 l 0.34,-0.348 c 0.309,-0.325 0.62,-0.646 0.936,-0.963 l 2.562,-2.569 0.074,-0.069 c 1.561,-1.353 3.558,-2.097 5.623,-2.097 1.441,0 2.833,0.356 4.071,1.024 0.005,-0.093 0.007,-0.185 0.01,-0.277 0.05,-3.698 -2.915,-6.774 -6.608,-6.856 -0.997,-0.021 -1.954,0.169 -2.854,0.562 -0.469,0.612 -1.002,1.171 -1.598,1.67 -1.96,1.64 -4.49,2.545 -7.122,2.545 -1.712,0 -3.379,-0.385 -4.872,-1.102 -0.942,1.134 -1.47,2.571 -1.472,4.062 0,1.696 0.659,3.292 1.859,4.492 m 13.801,-21.572 -1.896,-0.907 v 3.938 l 2.263,-0.847 z m -7.779,-3.712 v 8.935 l 2.802,-1.045 v -6.555 z m -5.879,1.335 v 6.555 l 2.801,1.045 v -8.935 z m -2.026,-2.442 6.368,-3.039 6.169,2.944 c -1.44,-2.506 -3.637,-4.448 -6.243,-5.429 -2.617,0.987 -4.849,2.973 -6.294,5.524 m -22.45,-36.162 -13.208,10.258 c -2.669,2.103 -4.202,5.257 -4.202,8.655 0,6.072 4.941,11.01 11.01,11.01 2.321,0 4.543,-0.717 6.4,-2.047 v -2.047 -2.672 l -1.747,1.433 -0.021,0.015 c -1.266,1.003 -2.854,1.554 -4.471,1.554 -3.972,0 -7.206,-3.234 -7.206,-7.206 0,-2.142 0.941,-4.158 2.585,-5.532 l 0.013,-0.01 10.847,-8.898 v -2.123 z m -8.895,15.792 c -0.934,0.787 -1.472,1.939 -1.472,3.161 0,2.276 1.852,4.128 4.128,4.128 0.937,0 1.818,-0.306 2.551,-0.881 l 3.688,-3.026 v -0.031 -10.254 -0.393 z m 93.69,3.121 c 0,11.448 -9.314,20.76 -20.76,20.76 -7.275,0 -13.975,-3.794 -17.737,-9.969 h -7.586 l -2.933,2.211 c 1.527,1.735 2.701,3.83 3.397,6.151 l 1.728,0.826 1.053,6.27 -2.258,0.844 c -0.109,0.546 -0.251,1.074 -0.422,1.583 0.316,-0.032 0.635,-0.048 0.957,-0.048 0.071,0 0.145,0 0.219,0.003 5.215,0.113 9.401,4.452 9.33,9.673 -0.013,0.902 -0.15,1.788 -0.412,2.643 -0.358,1.163 -0.859,2.01 -1.049,2.308 l -1.375,-1.324 c -1.086,-1.05 -2.516,-1.628 -4.028,-1.628 -1.379,0 -2.714,0.491 -3.764,1.385 l -2.522,2.532 c -0.306,0.306 -0.606,0.618 -0.907,0.929 l -0.343,0.353 c -1.736,1.794 -4.065,2.781 -6.56,2.781 -2.44,0 -4.732,-0.95 -6.457,-2.675 -1.726,-1.728 -2.675,-4.02 -2.675,-6.463 0.002,-2.031 0.686,-3.996 1.91,-5.584 -1.889,-1.62 -3.142,-3.838 -3.667,-6.468 l -2.258,-0.844 1.053,-6.27 1.553,-0.741 c 0.702,-2.388 1.884,-4.522 3.432,-6.276 L -35.65,3.078 h -7.581 c -3.762,6.175 -10.462,9.969 -17.737,9.969 -11.445,0 -20.759,-9.312 -20.759,-20.76 0,-6.6 3.181,-12.862 8.512,-16.763 l 14.41,-11.881 -0.01,-0.013 c 1.065,-0.72 1.701,-1.913 1.701,-3.195 0,-2.123 -1.728,-3.851 -3.854,-3.851 -2.123,0 -3.851,1.728 -3.851,3.851 0,0.968 0.361,1.892 1.016,2.604 l -2.269,2.084 c -1.176,-1.282 -1.825,-2.947 -1.825,-4.688 0,-3.822 3.11,-6.932 6.929,-6.932 3.822,0 6.932,3.11 6.932,6.932 0,2.142 -0.986,4.15 -2.661,5.458 l -14.643,12.073 -0.213,-0.258 0.197,0.269 c -4.566,3.323 -7.293,8.67 -7.293,14.31 0,9.749 7.932,17.681 17.681,17.681 5.54,0 10.689,-2.585 14.007,-6.89 h -4.951 c -2.535,2.132 -5.716,3.3 -9.056,3.3 -7.768,0 -14.088,-6.323 -14.088,-14.091 0,-4.347 1.96,-8.383 5.383,-11.081 l 15.075,-11.707 0.605,-0.464 c 0.081,-0.069 0.16,-0.14 0.242,-0.211 0.074,-0.064 0.153,-0.127 0.224,-0.193 0.08,-0.074 0.153,-0.148 0.227,-0.221 0.074,-0.069 0.145,-0.138 0.217,-0.209 0.073,-0.074 0.142,-0.153 0.211,-0.229 0.068,-0.074 0.139,-0.145 0.203,-0.219 0.068,-0.079 0.132,-0.159 0.198,-0.238 0.063,-0.079 0.129,-0.153 0.192,-0.232 0.061,-0.082 0.119,-0.163 0.18,-0.245 0.06,-0.082 0.121,-0.161 0.179,-0.243 0.058,-0.084 0.113,-0.171 0.169,-0.256 0.055,-0.084 0.11,-0.166 0.163,-0.25 0.053,-0.087 0.103,-0.177 0.153,-0.264 0.05,-0.087 0.103,-0.172 0.151,-0.259 0.047,-0.089 0.092,-0.182 0.137,-0.271 0.045,-0.09 0.092,-0.177 0.134,-0.267 0.045,-0.092 0.085,-0.19 0.127,-0.282 0.04,-0.09 0.082,-0.179 0.119,-0.269 0.037,-0.098 0.073,-0.195 0.108,-0.293 0.034,-0.092 0.071,-0.182 0.103,-0.271 0.034,-0.101 0.063,-0.201 0.095,-0.301 0.029,-0.093 0.06,-0.185 0.087,-0.277 0.029,-0.1 0.052,-0.203 0.076,-0.306 0.027,-0.095 0.053,-0.187 0.074,-0.282 0.024,-0.111 0.045,-0.222 0.066,-0.335 0.016,-0.087 0.037,-0.175 0.05,-0.262 0.021,-0.121 0.034,-0.242 0.05,-0.364 0.013,-0.081 0.027,-0.16 0.034,-0.24 0.016,-0.129 0.024,-0.258 0.032,-0.387 0.008,-0.077 0.016,-0.151 0.021,-0.227 0.011,-0.201 0.016,-0.401 0.016,-0.602 v -0.016 c 0,-1.587 -0.332,-3.12 -0.989,-4.56 L -51,-44.165 c -1.812,-3.862 -5.676,-6.333 -9.968,-6.333 -6.069,0 -11.01,4.94 -11.01,11.012 0,2.62 0.934,5.155 2.633,7.144 l -2.343,1.999 c -2.173,-2.545 -3.368,-5.792 -3.368,-9.143 0,-7.77 6.32,-14.091 14.088,-14.091 4.627,0 8.869,2.245 11.477,5.906 5.35,-7.763 14.223,-12.49 23.746,-12.49 9.52,0 18.393,4.725 23.743,12.482 2.606,-3.656 6.845,-5.898 11.469,-5.898 7.768,0 14.091,6.321 14.091,14.091 0,3.351 -1.197,6.598 -3.371,9.143 l -2.34,-1.999 c 1.697,-1.989 2.63,-4.524 2.63,-7.144 0,-6.072 -4.938,-11.012 -11.01,-11.012 -4.165,0 -7.927,2.329 -9.802,5.993 l -0.208,0.459 c -0.657,1.44 -0.992,2.973 -0.992,4.56 0,3.316 1.477,6.426 4.049,8.529 l 0.166,0.134 0.422,0.327 15.078,11.709 c 3.418,2.691 5.378,6.727 5.378,11.074 0,7.768 -6.323,14.091 -14.091,14.091 -3.339,0 -6.521,-1.168 -9.056,-3.3 H -4.54 c 3.319,4.305 8.468,6.89 14.007,6.89 9.749,0 17.681,-7.932 17.681,-17.681 0,-5.64 -2.727,-10.987 -7.293,-14.31 L 19.839,-22.034 5.196,-34.107 h 0.003 c -1.675,-1.308 -2.664,-3.316 -2.664,-5.458 0,-3.822 3.11,-6.932 6.932,-6.932 3.82,0 6.93,3.11 6.93,6.932 0,1.741 -0.649,3.406 -1.826,4.688 l -2.268,-2.084 c 0.654,-0.712 1.015,-1.636 1.015,-2.604 0,-2.123 -1.727,-3.851 -3.851,-3.851 -2.123,0 -3.851,1.728 -3.851,3.851 0,1.282 0.633,2.475 1.699,3.195 l -0.008,0.01 14.407,11.884 c 5.332,3.901 8.513,10.163 8.513,16.763"
         style="fill:#545e67;fill-opacity:1;fill-rule:nonzero;stroke:none"
         transform="matrix(0.84486539,0,0,-0.84486539,411.76842,422.72532)"
         clip-path="url(#clipPath44)" />
      <path
         id="path45"
         d="M 0,0 H 2.385 V 2.042 H 4.426 V 4.426 H 2.385 V 6.47 H 0 V 4.426 H -2.042 V 2.042 H 0 Z"
         style="fill:#545e67;fill-opacity:1;fill-rule:nonzero;stroke:none"
         transform="matrix(0.84486539,0,0,-0.84486539,389.01063,397.86466)"
         clip-path="url(#clipPath46)" />
      <path
         id="path47"
         d="m 0,0 -0.24,-0.607 c -0.417,-0.045 -0.778,-0.279 -0.992,-0.617 l -1.161,-0.48 c -0.068,-0.026 -0.153,-0.114 -0.153,-0.235 0,-0.082 0.04,-0.155 0.103,-0.203 -0.01,-0.016 -0.008,-0.034 0,-0.055 l 0.378,-0.847 c 0.171,-0.024 0.35,0.003 0.514,0.076 0.374,0.159 0.451,0.206 0.63,0.206 0.267,0 0.483,-0.216 0.483,-0.485 0,-0.256 -0.2,-0.467 -0.456,-0.48 H -1.05 c -0.095,0 -0.216,0.026 -0.293,0.079 -0.124,0.063 -0.211,0.184 -0.229,0.327 -0.264,-0.235 -0.362,-0.48 -0.369,-0.728 -0.006,-0.135 -0.006,-0.301 -0.006,-0.491 h 2.1 l -1.791,-1.126 c -0.069,-0.045 -0.158,-0.045 -0.227,0 l -2.791,1.749 v 0.683 c 0,0.142 -0.071,0.274 -0.192,0.348 l -0.808,0.512 v -2.58 c 0,-0.142 0.074,-0.274 0.193,-0.351 l 2.865,-1.796 c -0.016,-0.095 -0.027,-0.195 -0.029,-0.295 l -2.029,-1.269 v 0.741 c 0,0.142 -0.071,0.274 -0.192,0.348 l -0.808,0.512 v -3.376 c 0,-0.325 0.357,-0.523 0.631,-0.349 l 2.894,1.812 1.651,-3.439 -2.443,-1.538 c -0.121,-0.074 -0.192,-0.206 -0.192,-0.348 v -1.583 l -1.256,0.438 c -0.166,0.058 -0.277,0.214 -0.277,0.388 v 0.889 c 0,0.174 -0.108,0.329 -0.272,0.387 l -0.728,0.262 v -3.023 c 0,-0.177 0.111,-0.333 0.277,-0.391 l 3.538,-1.247 c 0.266,-0.098 0.551,0.1 0.551,0.387 l 0.005,1.855 c 0.003,0.224 0.187,0.403 0.412,0.403 h 1.883 l 1.229,-2.59 c 0.069,-0.145 0.214,-0.235 0.372,-0.235 H 4.745 L 4.308,-19.617 C 4.252,-19.784 4.094,-19.894 3.92,-19.894 H 3.031 c -0.174,0 -0.327,-0.109 -0.388,-0.272 l -0.261,-0.728 h 3.025 c 0.175,0 0.33,0.111 0.388,0.277 l 1.251,3.537 c 0.094,0.269 -0.103,0.551 -0.388,0.551 l -2.139,0.04 c -0.28,0.005 -0.475,0.285 -0.38,0.549 l 0.622,1.754 h 1.185 c 1.469,0 2.74,1.158 2.74,2.627 0,0.586 -0.118,0.931 -0.298,1.306 l -1.509,3.202 c -0.245,0.623 0.214,1.295 0.881,1.295 H 7.779 C 7.89,-5.985 8.122,-6.13 8.378,-6.133 l 0.253,-0.003 c 0.723,0.003 1.366,0.462 1.609,1.143 H 7.763 C 7.391,-4.991 7.014,-5.109 6.692,-5.363 6.041,-5.874 5.864,-6.705 6.241,-7.526 l 1.533,-3.178 c 0.108,-0.243 0.166,-0.512 0.163,-0.797 -0.005,-1.079 -0.91,-1.936 -1.986,-1.936 H 4.956 c -0.952,0 -1.725,0.773 -1.725,1.728 0,0.295 0.188,0.831 0.188,0.831 l 1.812,5.114 C 5.655,-4.569 5.576,-3.245 4.975,-2.129 4.716,-1.651 4.347,-1.177 3.82,-0.762 3.002,-0.1 1.889,0.214 1.161,0.214 0.752,0.214 0.361,0.137 0,0"
         style="fill:#545e67;fill-opacity:1;fill-rule:nonzero;stroke:none"
         transform="matrix(0.84486539,0,0,-0.84486539,397.93426,446.06119)"
         clip-path="url(#clipPath48)" />
      <path
         id="path49"
         d="M 0,0 C -0.121,0.018 -0.216,0.113 -0.227,0.235 -0.459,2.659 -2.506,4.561 -4.988,4.561 -5.109,4.561 -5.231,4.555 -5.352,4.548 -5.444,4.54 -5.534,4.579 -5.592,4.656 -6.463,5.835 -7.863,6.6 -9.436,6.6 c -1.574,0 -2.972,-0.765 -3.845,-1.944 -0.056,-0.077 -0.148,-0.116 -0.24,-0.108 -0.122,0.007 -0.243,0.013 -0.364,0.013 -2.483,0 -4.53,-1.902 -4.762,-4.326 -0.01,-0.122 -0.105,-0.217 -0.227,-0.235 -1.719,-0.248 -3.046,-1.728 -3.046,-3.516 0,-1.786 1.327,-3.268 3.046,-3.516 0.122,-0.016 0.217,-0.114 0.227,-0.235 0.232,-2.424 2.279,-4.326 4.762,-4.326 0.121,0 0.242,0.005 0.364,0.016 0.092,0.005 0.184,-0.035 0.24,-0.111 0.377,-0.509 0.854,-0.942 1.4,-1.269 h -0.002 c 0.717,-0.422 1.202,-1.203 1.202,-2.097 l 0.011,-15.687 c 0,-0.111 -0.071,-0.211 -0.174,-0.251 l -5.74,-1.994 c -0.106,-0.039 -0.174,-0.14 -0.174,-0.25 v -0.212 l 7.322,-0.002 h 0.008 7.312 v 0.002 h 0.003 v 0.212 c 0,0.11 -0.071,0.211 -0.174,0.25 l -5.743,1.994 c -0.102,0.04 -0.171,0.14 -0.171,0.251 l 0.008,15.732 c 0.018,0.876 0.496,1.635 1.2,2.052 0.546,0.327 1.024,0.76 1.401,1.269 0.058,0.076 0.148,0.116 0.24,0.111 0.121,-0.011 0.243,-0.016 0.364,-0.016 2.482,0 4.529,1.902 4.761,4.326 0.011,0.121 0.106,0.219 0.227,0.235 1.72,0.248 3.047,1.73 3.047,3.516 C 3.047,-1.728 1.72,-0.248 0,0"
         style="fill:#545e67;fill-opacity:1;fill-rule:nonzero;stroke:none"
         transform="matrix(0.84486539,0,0,-0.84486539,397.99188,435.4539)"
         clip-path="url(#clipPath50)" />
      <path
         id="path51"
         d="M 0,0 V 3.023 L -0.728,2.762 C -0.892,2.704 -1,2.548 -1,2.374 V 1.488 C -1,1.311 -1.111,1.155 -1.277,1.097 L -2.532,0.662 v 1.58 c 0,0.143 -0.074,0.274 -0.193,0.351 l -2.443,1.535 1.652,3.44 2.893,-1.812 C -0.348,5.584 0.008,5.779 0.008,6.104 V 9.48 L -0.802,8.971 C -0.921,8.895 -0.994,8.763 -0.994,8.623 V 7.879 L -3.02,9.151 c -0.003,0.097 -0.014,0.197 -0.032,0.295 l 2.867,1.794 c 0.119,0.076 0.193,0.208 0.193,0.351 v 2.579 l -0.81,-0.509 c -0.119,-0.076 -0.192,-0.208 -0.192,-0.348 v -0.686 l -2.789,-1.749 c -0.071,-0.042 -0.158,-0.042 -0.229,0 l -1.789,1.127 h 2.097 c 0,0.19 0,0.358 -0.002,0.493 -0.008,0.248 -0.106,0.491 -0.369,0.725 -0.022,-0.142 -0.109,-0.261 -0.23,-0.327 -0.076,-0.05 -0.198,-0.079 -0.293,-0.079 h -0.155 c -0.256,0.016 -0.459,0.224 -0.459,0.483 0,0.266 0.216,0.483 0.485,0.483 0.179,0 0.256,-0.048 0.63,-0.206 0.164,-0.074 0.343,-0.1 0.515,-0.077 l 0.374,0.85 c 0.011,0.021 0.011,0.039 0.003,0.052 0.061,0.048 0.103,0.122 0.103,0.206 0,0.122 -0.084,0.206 -0.153,0.235 l -1.163,0.477 c -0.214,0.338 -0.573,0.575 -0.99,0.618 l -0.24,0.606 c -0.361,0.137 -0.751,0.214 -1.16,0.214 -0.728,0 -1.841,-0.311 -2.662,-0.976 -0.525,-0.411 -0.894,-0.889 -1.152,-1.366 -0.602,-1.116 -0.681,-2.44 -0.256,-3.635 l 1.812,-5.112 c 0,0 0.187,-0.536 0.187,-0.834 0,-0.955 -0.773,-1.728 -1.728,-1.728 h -0.991 c -1.079,0 -1.981,0.86 -1.989,1.936 0,0.285 0.058,0.554 0.166,0.797 l 1.532,3.179 c 0.378,0.82 0.201,1.654 -0.451,2.163 -0.324,0.253 -0.701,0.372 -1.073,0.369 h -2.475 c 0.24,-0.681 0.887,-1.137 1.609,-1.14 h 0.254 c 0.256,0.003 0.488,0.148 0.598,0.378 h 0.019 c 0.667,0 1.126,-0.673 0.878,-1.296 l -1.506,-3.202 c -0.179,-0.374 -0.298,-0.72 -0.298,-1.306 0,-1.469 1.269,-2.627 2.741,-2.627 h 1.184 L -9.786,0.604 C -9.694,0.34 -9.887,0.061 -10.169,0.055 l -2.136,-0.037 c -0.285,0 -0.486,-0.284 -0.388,-0.553 l 1.247,-3.538 c 0.059,-0.166 0.217,-0.277 0.391,-0.277 h 3.025 l -0.263,0.728 c -0.058,0.164 -0.214,0.275 -0.388,0.275 h -0.886 c -0.177,0 -0.333,0.11 -0.391,0.274 l -0.435,1.255 h 2.126 c 0.158,0 0.303,0.093 0.372,0.235 l 1.229,2.591 h 1.884 c 0.224,0 0.406,-0.18 0.411,-0.404 l 0.005,-1.854 c 0,-0.285 0.283,-0.486 0.552,-0.388 l 3.537,1.248 C -0.111,-0.332 0,-0.174 0,0"
         style="fill:#545e67;fill-opacity:1;fill-rule:nonzero;stroke:none"
         transform="matrix(0.84486539,0,0,-0.84486539,386.87362,460.03957)"
         clip-path="url(#clipPath52)" />
      <path
         id="path53"
         d="m 0,0 c -6.389,0 -8.533,4.513 -8.57,8.481 -0.04,3.967 2.376,8.752 8.57,8.752 2.181,0 4.558,-0.662 6.196,-2.256 l 3.466,3.427 1.541,1.506 -1.456,0.686 C 9.275,20.132 8.533,20.055 7.99,20.435 5.608,22.094 2.886,22.952 0,22.952 -10.013,22.952 -14.611,15.56 -14.571,8.52 -14.532,1.089 -10.404,-5.603 0,-5.603 c 4.052,0 7.676,1.245 10.48,4.007 L 6.7,2.606 C 5.065,0.973 2.181,0 0,0 m -18.431,19.14 c -0.559,0.646 -1.136,1.192 -1.727,1.667 -0.035,0.029 -0.071,0.055 -0.108,0.084 -2.356,1.855 -5.023,2.438 -8.346,2.438 -5.611,0 -10.752,-2.878 -10.792,-8.286 -0.079,-6.417 5.065,-7.858 10.831,-8.401 3.701,-0.311 5.532,-1.364 5.495,-3.659 0,-1.944 -2.221,-3.228 -5.455,-3.228 -0.428,0 -0.873,0.031 -1.327,0.089 l -0.253,0.037 c -1.53,0.232 -3.145,0.792 -4.558,1.733 -0.636,0.425 -0.739,1.319 -0.217,1.876 l -0.712,1.443 -1.269,-1.33 c -0.002,0 -0.002,0.003 -0.002,0.003 l -3.625,-3.772 c 2.3,-3.814 7.209,-5.643 11.923,-5.603 5.882,0.04 11.493,2.685 11.493,8.752 0,6.302 -5.104,8.365 -10.48,8.832 -3.506,0.311 -5.882,0.778 -5.882,3.268 0,1.868 2.181,2.994 4.869,2.994 2.142,0 4.793,-0.699 6.312,-2.295 z m -31.519,3.878 v 0 h -1.775 l 0.562,-1.507 c 0.67,0 1.213,-0.543 1.213,-1.213 V -5.537 h 6.038 v 28.555 z m 76.587,-5.445 c -5.181,0 -8.766,-3.93 -8.766,-8.871 0,-5.096 3.585,-8.792 8.766,-8.792 5.299,0 8.765,3.735 8.765,8.792 0,4.98 -3.466,8.871 -8.765,8.871 m 0,-23.147 c -8.726,0 -14.727,5.408 -14.727,14.276 0,8.871 6.001,14.316 14.727,14.316 8.728,0 14.727,-5.445 14.727,-14.316 0,-8.868 -5.999,-14.276 -14.727,-14.276 m -94.445,5.59 v 22.988 h -6.077 -1.775 l 0.561,-1.508 c 0.67,0 1.214,-0.544 1.214,-1.214 V -5.547 h 19.715 v 5.563 z m -29.781,5.79 4.714,11.05 4.677,-11.05 z m 8.027,17.196 h -6.623 v -0.003 h -2.385 l 0.562,-1.506 c 0.546,0 0.913,-0.562 0.694,-1.063 l -11.754,-25.998 h 6.594 l 2.588,6.006 H -85.9 l 2.574,-6.006 h 6.597 z m -33.495,0.002 v -5.523 h 7.558 V 6.745 c 0,-4.202 -2.377,-6.537 -6.35,-6.537 -3.468,0 -6.001,1.675 -6.196,6.149 h -5.882 V 6.354 h -1.715 l 0.562,-1.506 c 0.673,0 1.253,-0.49 1.351,-1.158 0.939,-6.402 5.196,-9.237 11.957,-9.237 8.066,0 12.35,5.135 12.35,12.252 V 23.004 Z M 36.921,-18.13 c -1.506,0 -2.55,-1.131 -2.55,-2.572 0,-1.485 1.044,-2.561 2.55,-2.561 1.541,0 2.551,1.087 2.551,2.561 0,1.451 -1.01,2.572 -2.551,2.572 m 0,-6.731 c -2.54,0 -4.283,1.574 -4.283,4.159 0,2.585 1.743,4.16 4.283,4.16 2.541,0 4.284,-1.575 4.284,-4.16 0,-2.585 -1.743,-4.159 -4.284,-4.159 m -12.637,1.825 h 1.506 c 1.722,0 2.2,1.269 2.2,2.414 0,1.144 -0.544,2.289 -2.2,2.289 h -1.506 z m 1.506,6.302 c 2.733,0 3.946,-1.836 3.946,-3.912 0,-2.074 -1.169,-4.023 -3.946,-4.023 h -3.253 v 7.935 z m -10.631,-1.791 -1.371,-3.219 h 2.73 z m 2.029,-4.783 h -4.07 l -0.578,-1.361 h -1.904 l 3.558,7.935 h 1.928 l 3.559,-7.935 H 17.766 Z M 5.001,-18.309 H 2.588 v 1.575 h 6.586 v -1.575 H 6.761 v -6.36 h -1.76 z m -6.46,-0.34 c -0.44,0.464 -1.213,0.667 -1.836,0.667 -0.78,0 -1.416,-0.327 -1.416,-0.873 0,-0.726 0.691,-0.86 1.712,-0.952 1.564,-0.135 3.049,-0.736 3.049,-2.572 0,-1.768 -1.633,-2.54 -3.345,-2.551 -1.371,-0.011 -2.798,0.522 -3.468,1.633 l 1.055,1.1 c 0.612,-0.784 1.619,-1.124 2.424,-1.124 0.942,0 1.588,0.375 1.588,0.942 0.01,0.667 -0.522,0.973 -1.599,1.065 -1.677,0.159 -3.173,0.578 -3.152,2.448 0.013,1.575 1.509,2.414 3.142,2.414 1.224,0 2.142,-0.272 2.957,-1.224 z m -8.103,-6.02 h -6.043 v 7.935 h 5.885 v -1.623 h -4.15 v -1.53 h 3.91 v -1.551 h -3.91 v -1.598 h 4.308 z m -17.491,7.935 v -6.315 h 3.967 v -1.62 h -5.735 v 7.935 z m -5.179,-7.935 h -6.043 v 7.935 h 5.883 v -1.623 h -4.147 v -1.53 h 3.909 v -1.551 h -3.909 v -1.598 h 4.307 z m -14.85,1.633 h 1.508 c 1.723,0 2.2,1.269 2.2,2.414 0,1.144 -0.546,2.289 -2.2,2.289 h -1.508 z m 1.508,6.302 c 2.733,0 3.944,-1.836 3.944,-3.912 0,-2.074 -1.166,-4.023 -3.944,-4.023 h -3.252 v 7.935 z m -15.573,-1.396 c -1.509,0 -2.551,-1.131 -2.551,-2.572 0,-1.485 1.042,-2.561 2.551,-2.561 1.54,0 2.551,1.087 2.551,2.561 0,1.451 -1.011,2.572 -2.551,2.572 m 0,-6.731 c -2.54,0 -4.287,1.574 -4.287,4.159 0,2.585 1.747,4.16 4.287,4.16 2.537,0 4.284,-1.575 4.284,-4.16 0,-2.585 -1.747,-4.159 -4.284,-4.159 m -9.285,2.97 -0.111,2.493 v 2.664 h 1.778 v -7.935 h -1.52 l -3.943,5.078 0.068,-2.606 v -2.472 h -1.791 v 7.935 h 1.52 z m -13.986,3.637 v -2.313 h 2.018 c 0.815,0 1.166,0.612 1.166,1.113 -0.011,0.543 -0.362,1.2 -1.19,1.2 z m 5.27,-6.415 h -1.96 l -2.031,2.606 h -1.279 v -2.606 h -1.767 v 7.935 h 3.761 c 1.915,0 2.936,-1.282 2.936,-2.675 -0.01,-1.031 -0.316,-1.949 -1.836,-2.495 l 2.176,-2.63 z m -10.451,0 h -6.04 v 7.935 h 5.882 v -1.623 h -4.149 v -1.53 h 3.912 v -1.551 h -3.912 v -1.598 h 4.307 z m -11.582,7.935 h 1.757 v -7.935 h -1.757 z m -8.526,-6.394 h 2.177 c 0.793,0 1.168,0.35 1.168,0.907 0,0.557 -0.409,0.929 -1.19,0.929 h -2.155 z m 0,3.31 h 2.155 c 0.691,0 1.032,0.282 1.032,0.749 0,0.464 -0.341,0.805 -1.01,0.805 h -2.177 z m 2.177,3.084 c 1.508,0 2.753,-0.681 2.753,-2.155 0,-0.657 -0.292,-1.269 -1.052,-1.62 1.008,-0.364 1.427,-1.382 1.258,-2.3 -0.237,-1.282 -1.303,-1.86 -2.891,-1.86 h -3.978 v 7.935 z m -11.528,-1.396 c -1.506,0 -2.551,-1.131 -2.551,-2.572 0,-1.485 1.045,-2.561 2.551,-2.561 1.543,0 2.551,1.087 2.551,2.561 0,1.451 -1.008,2.572 -2.551,2.572 m 0,-6.731 c -2.537,0 -4.284,1.574 -4.284,4.159 0,2.585 1.747,4.16 4.284,4.16 2.54,0 4.284,-1.575 4.284,-4.16 0,-2.585 -1.744,-4.159 -4.284,-4.159 m -8.625,6.04 c -0.488,0.464 -1.224,0.704 -1.86,0.704 -1.506,0 -2.493,-0.862 -2.493,-2.595 0,-1.134 0.623,-2.551 2.493,-2.551 0.557,0 1.079,0.09 1.691,0.554 v 1.271 h -1.894 v 1.472 h 3.424 v -3.455 c -0.681,-0.976 -1.77,-1.475 -3.232,-1.475 -3.059,0 -4.215,2.118 -4.215,4.184 0,2.231 1.314,4.215 4.226,4.215 1.079,0 2.052,-0.295 2.96,-1.224 z"
         style="fill:#545e67;fill-opacity:1;fill-rule:nonzero;stroke:none"
         transform="matrix(0.84486539,0,0,-0.84486539,429.0254,502.15409)"
         clip-path="url(#clipPath54)" />
    </g>
    <path
       id="path2-9"
       d="M 99.135893,556.34118 H 333.25988 V 352.50786 H 99.135893 Z"
       style="fill:none;stroke:none;stroke-width:1.33333;stroke-linecap:butt;stroke-linejoin:miter;stroke-miterlimit:10;stroke-dasharray:none;stroke-opacity:1"
       inkscape:export-filename="C:\Users\RICARDOQUE\Downloads\dif transparente sin marco.png"
       inkscape:export-xdpi="96"
       inkscape:export-ydpi="96" />
    <g
       id="g2"
       transform="matrix(0.97104643,0,0,0.97104643,3.6843277,15.199752)">
      <path
         id="path259-3"
         d="m 0,0 c -1.758,0 -3.187,-1.43 -3.187,-3.187 0,-1.757 1.429,-3.188 3.187,-3.188 1.757,0 3.187,1.431 3.187,3.188 C 3.187,-1.43 1.757,0 0,0 m 0,-11.932 c -4.822,0 -8.745,3.923 -8.745,8.745 0,4.822 3.923,8.744 8.745,8.744 4.822,0 8.744,-3.922 8.744,-8.744 0,-4.822 -3.922,-8.745 -8.744,-8.745"
         style="fill:#ff7900;fill-opacity:1;fill-rule:nonzero;stroke:none"
         transform="matrix(1.3333333,0,0,-1.3333333,213.6151,394.40131)"
         clip-path="url(#clipPath260-1)"
         inkscape:export-filename="C:\Users\RICARDOQUE\Downloads\dif transparente sin marco.png"
         inkscape:export-xdpi="96"
         inkscape:export-ydpi="96" />
      <path
         id="path261-7"
         d="M 0,0 C 1.787,0 3.24,-1.454 3.24,-3.24 3.24,-5.027 1.787,-6.481 0,-6.481 H -12.112 V 0 Z m 20.248,18.722 c 0.002,0.095 0.007,0.189 0.007,0.285 H 20.24 C 19.935,32.516 8.859,43.414 -4.722,43.414 c -13.66,0 -24.788,-11.025 -24.968,-24.643 h -0.009 V -25.17 h 5.557 v 43.607 c 0,10.708 8.712,19.42 19.42,19.42 10.58,0 19.206,-8.508 19.41,-19.041 -0.1,-1.938 -1.704,-3.486 -3.667,-3.486 -2.027,0 -3.676,1.649 -3.676,3.677 0,6.892 -5.607,12.499 -12.499,12.499 -6.892,0 -12.5,-5.607 -12.5,-12.499 h -0.015 v -53.03 h 5.557 v 21.985 H 0 c 4.851,0 8.798,3.947 8.798,8.798 0,4.85 -3.947,8.797 -8.798,8.797 h -12.112 v 13.45 h 0.016 c 0,3.827 3.114,6.941 6.942,6.941 3.828,0 6.942,-3.114 6.942,-6.941 0,-5.092 4.142,-9.234 9.233,-9.234 4.9,0 8.919,3.837 9.215,8.664 h 0.019 c 0,0.096 -0.007,0.19 -0.007,0.285"
         style="fill:#545e67;fill-opacity:1;fill-rule:nonzero;stroke:none"
         transform="matrix(1.3333333,0,0,-1.3333333,273.5855,444.91438)"
         clip-path="url(#clipPath262-4)"
         inkscape:export-filename="C:\Users\RICARDOQUE\Downloads\dif transparente sin marco.png"
         inkscape:export-xdpi="96"
         inkscape:export-ydpi="96" />
      <path
         id="path263-4"
         d="m 0,0 c -8.794,0 -16.687,5.562 -19.641,13.84 -0.802,2.246 -1.208,4.604 -1.208,7.009 h 5.558 c 0,-1.767 0.297,-3.496 0.884,-5.141 C -12.24,9.637 -6.45,5.557 0,5.557 c 8.432,0 15.292,6.86 15.292,15.292 h 5.557 C 20.849,9.353 11.496,0 0,0"
         style="fill:#ff7900;fill-opacity:1;fill-rule:nonzero;stroke:none"
         transform="matrix(1.3333333,0,0,-1.3333333,213.5975,511.82944)"
         clip-path="url(#clipPath264-8)"
         inkscape:export-filename="C:\Users\RICARDOQUE\Downloads\dif transparente sin marco.png"
         inkscape:export-xdpi="96"
         inkscape:export-ydpi="96" />
      <path
         id="path265-5"
         d="M 0,0 C -0.718,-0.346 -0.81,-0.872 -0.591,-1.348 -0.329,-1.92 0.178,-2.096 0.833,-1.796 L 2.425,-1.065 1.837,0.217 2.981,0.743 4.196,-1.905 1.453,-3.164 c -1.269,-0.583 -2.556,-0.197 -3.236,1.286 -0.64,1.392 -0.338,2.516 1.172,3.209 z"
         style="fill:#545e67;fill-opacity:1;fill-rule:nonzero;stroke:none"
         transform="matrix(1.3333333,0,0,-1.3333333,178.51244,498.36504)"
         clip-path="url(#clipPath266-5)"
         inkscape:export-filename="C:\Users\RICARDOQUE\Downloads\dif transparente sin marco.png"
         inkscape:export-xdpi="96"
         inkscape:export-ydpi="96" />
      <path
         id="path267-25"
         d="M 0,0 -1.651,-0.777 -0.655,-1.7 Z m -1.137,-2.97 -1.743,1.613 -0.849,-0.402 -1.169,1.082 5.357,2.279 1.114,-1.032 -1.866,-5.511 -1.181,1.093 z"
         style="fill:#545e67;fill-opacity:1;fill-rule:nonzero;stroke:none"
         transform="matrix(1.3333333,0,0,-1.3333333,189.27657,510.32424)"
         clip-path="url(#clipPath268-3)"
         inkscape:export-filename="C:\Users\RICARDOQUE\Downloads\dif transparente sin marco.png"
         inkscape:export-xdpi="96"
         inkscape:export-ydpi="96" />
      <path
         id="path269-4"
         d="M 0,0 -1.406,-3.785 0.977,-4.67 0.533,-5.865 -3.258,-4.456 -1.409,0.523 Z"
         style="fill:#545e67;fill-opacity:1;fill-rule:nonzero;stroke:none"
         transform="matrix(1.3333333,0,0,-1.3333333,201.44457,515.62611)"
         clip-path="url(#clipPath270-1)"
         inkscape:export-filename="C:\Users\RICARDOQUE\Downloads\dif transparente sin marco.png"
         inkscape:export-xdpi="96"
         inkscape:export-ydpi="96" />
      <path
         id="path271-7"
         d="M 0,0 0.171,5.308 1.665,5.26 1.494,-0.049 Z"
         style="fill:#545e67;fill-opacity:1;fill-rule:nonzero;stroke:none"
         transform="matrix(1.3333333,0,0,-1.3333333,211.28057,524.90451)"
         clip-path="url(#clipPath272-6)"
         inkscape:export-filename="C:\Users\RICARDOQUE\Downloads\dif transparente sin marco.png"
         inkscape:export-xdpi="96"
         inkscape:export-ydpi="96" />
      <path
         id="path273-4"
         d="m 0,0 c -0.428,0.154 -0.854,0.118 -1.296,-0.018 -0.348,-0.108 -0.655,-0.322 -0.572,-0.59 0.107,-0.348 0.463,-0.293 0.979,-0.19 1.041,0.202 2.217,0.12 2.577,-1.046 0.356,-1.153 -0.58,-1.981 -1.715,-2.339 -0.911,-0.289 -1.613,-0.331 -2.544,0.191 l 0.511,1.15 c 0.649,-0.332 1.234,-0.246 1.662,-0.114 0.472,0.145 0.746,0.412 0.659,0.695 -0.078,0.253 -0.417,0.324 -0.991,0.202 -1.141,-0.24 -2.185,-0.253 -2.573,1.009 -0.331,1.072 0.577,1.86 1.649,2.191 0.762,0.235 1.409,0.244 2.085,-0.016 z"
         style="fill:#545e67;fill-opacity:1;fill-rule:nonzero;stroke:none"
         transform="matrix(1.3333333,0,0,-1.3333333,225.80444,517.75611)"
         clip-path="url(#clipPath274-2)"
         inkscape:export-filename="C:\Users\RICARDOQUE\Downloads\dif transparente sin marco.png"
         inkscape:export-xdpi="96"
         inkscape:export-ydpi="96" />
      <path
         id="path275-4"
         d="m 0,0 c -0.091,-0.837 -0.507,-1.48 -1.131,-1.988 -1.618,-1.317 -3.076,-0.812 -3.993,0.3 -0.868,1.055 -1.072,2.758 0.476,4.019 0.594,0.484 1.297,0.714 2.131,0.64 L -2.66,1.68 C -3.184,1.722 -3.552,1.55 -3.829,1.325 -4.623,0.678 -4.408,-0.224 -3.966,-0.754 c 0.442,-0.531 1.218,-0.907 2.03,-0.245 0.277,0.225 0.581,0.669 0.63,1.208 z"
         style="fill:#545e67;fill-opacity:1;fill-rule:nonzero;stroke:none"
         transform="matrix(1.3333333,0,0,-1.3333333,241.5543,512.87344)"
         clip-path="url(#clipPath276-6)"
         inkscape:export-filename="C:\Users\RICARDOQUE\Downloads\dif transparente sin marco.png"
         inkscape:export-xdpi="96"
         inkscape:export-ydpi="96" />
      <path
         id="path277-3"
         d="M 0,0 C -0.401,-0.758 -0.129,-1.571 0.649,-1.984 1.433,-2.399 2.256,-2.157 2.654,-1.407 3.066,-0.629 2.783,0.165 2.006,0.577 1.201,1.003 0.412,0.777 0,0 M 3.787,-2.007 C 2.974,-3.542 1.514,-4.142 -0.054,-3.31 c -1.542,0.816 -1.892,2.376 -1.078,3.911 0.816,1.541 2.28,2.131 3.841,1.303 1.568,-0.831 1.895,-2.37 1.078,-3.911"
         style="fill:#545e67;fill-opacity:1;fill-rule:nonzero;stroke:none"
         transform="matrix(1.3333333,0,0,-1.3333333,244.91124,500.56291)"
         clip-path="url(#clipPath278-5)"
         inkscape:export-filename="C:\Users\RICARDOQUE\Downloads\dif transparente sin marco.png"
         inkscape:export-xdpi="96"
         inkscape:export-ydpi="96" />
      <path
         id="path279-0"
         d="m 0,0 c -1.787,0 -3.24,1.453 -3.24,3.24 v 29.111 c 0,1.787 1.453,3.24 3.24,3.24 1.787,0 3.24,-1.453 3.24,-3.24 V 3.24 C 3.24,1.453 1.787,0 0,0 m 8.798,3.24 v 0 29.111 c 0,4.851 -3.947,8.798 -8.798,8.798 -4.851,0 -8.798,-3.947 -8.798,-8.798 V 3.21 h 10e-4 C -8.78,-1.627 -4.841,-5.557 0,-5.557 c 4.833,0 8.766,3.916 8.796,8.742 h 0.002 z"
         style="fill:#545e67;fill-opacity:1;fill-rule:nonzero;stroke:none"
         transform="matrix(1.3333333,0,0,-1.3333333,213.6151,471.06438)"
         clip-path="url(#clipPath280-4)"
         inkscape:export-filename="C:\Users\RICARDOQUE\Downloads\dif transparente sin marco.png"
         inkscape:export-xdpi="96"
         inkscape:export-ydpi="96" />
      <path
         id="path281-7"
         d="m 0,0 c -3.89,0 -7.055,3.165 -7.055,7.055 0,3.89 3.165,7.054 7.055,7.054 3.89,0 7.055,-3.164 7.055,-7.054 C 7.055,3.165 3.89,0 0,0 m 15.868,59.76 c -4.856,0 -8.807,-4.057 -8.807,-9.044 V 30.842 C 4.781,31.519 2.417,31.866 0,31.866 c -13.681,0 -24.812,-11.13 -24.812,-24.811 0,-13.682 11.131,-24.812 24.812,-24.812 4.556,0 8.882,1.226 12.614,3.424 v 6.815 C 9.192,-10.484 4.757,-12.204 0,-12.204 c -10.619,0 -19.258,8.64 -19.258,19.259 0,10.619 8.639,19.258 19.258,19.258 2.443,0 4.815,-0.455 7.061,-1.341 V 17.494 C 5.045,18.862 2.614,19.662 0,19.662 c -6.952,0 -12.608,-5.655 -12.608,-12.607 0,-6.953 5.656,-12.608 12.608,-12.608 6.952,0 12.608,5.655 12.608,12.608 h 0.006 v 43.661 c 0,1.925 1.46,3.491 3.254,3.491 1.794,0 3.253,-1.566 3.253,-3.491 H 19.108 V 1.108 h 0.013 V -9.151 h 5.541 v 59.867 h 0.012 c 0,4.987 -3.95,9.044 -8.806,9.044"
         style="fill:#545e67;fill-opacity:1;fill-rule:nonzero;stroke:none"
         transform="matrix(1.3333333,0,0,-1.3333333,160.33217,466.67184)"
         clip-path="url(#clipPath282-6)"
         inkscape:export-filename="C:\Users\RICARDOQUE\Downloads\dif transparente sin marco.png"
         inkscape:export-xdpi="96"
         inkscape:export-ydpi="96" />
    </g>
  </g>
</svg>
